<?xml version="1.0" standalone="no"?>
<!DOCTYPE svg PUBLIC "-//W3C//DTD SVG 20010904//EN"
 "http://www.w3.org/TR/2001/REC-SVG-20010904/DTD/svg10.dtd">
<svg version="1.0" xmlns="http://www.w3.org/2000/svg"
 width="1024.000000pt" height="559.000000pt" viewBox="0 0 1024.000000 559.000000"
 preserveAspectRatio="xMidYMid meet">

<g transform="translate(0.000000,559.000000) scale(0.100000,-0.100000)"
fill="#3B82F6" stroke="none">
<path d="M5070 4190 c-10 -6 3 -7 40 -3 30 3 57 7 59 9 10 9 -85 3 -99 -6z"/>
<path d="M5249 4161 c14 -16 28 -27 30 -25 5 5 -40 54 -50 54 -3 0 5 -13 20
-29z"/>
<path d="M5020 4160 c-9 -6 -10 -10 -3 -10 6 0 15 5 18 10 8 12 4 12 -15 0z"/>
<path d="M5108 4143 c7 -3 16 -2 19 1 4 3 -2 6 -13 5 -11 0 -14 -3 -6 -6z"/>
<path d="M5051 4119 c-35 -28 -22 -32 14 -3 17 13 26 24 20 24 -5 -1 -21 -10
-34 -21z"/>
<path d="M5141 4106 c-19 -21 -20 -24 -6 -30 24 -9 32 -7 15 4 -12 7 -12 12 4
29 26 29 14 26 -13 -3z"/>
<path d="M5286 4100 c8 -30 53 -119 53 -105 0 6 -13 37 -29 70 -17 33 -27 49
-24 35z"/>
<path d="M5006 4073 c-6 -14 -5 -15 5 -6 7 7 10 15 7 18 -3 3 -9 -2 -12 -12z"/>
<path d="M5096 4035 c-3 -8 -1 -15 4 -15 6 0 10 7 10 15 0 8 -2 15 -4 15 -2 0
-6 -7 -10 -15z"/>
<path d="M4915 4029 c-4 -6 -5 -12 -2 -15 2 -3 7 2 10 11 7 17 1 20 -8 4z"/>
<path d="M4958 3995 c-8 -19 -12 -35 -8 -35 8 0 33 61 27 66 -2 2 -10 -12 -19
-31z"/>
<path d="M5076 3993 c-6 -14 -5 -15 5 -6 7 7 10 15 7 18 -3 3 -9 -2 -12 -12z"/>
<path d="M4876 3955 c-9 -26 -7 -32 5 -12 6 10 9 21 6 23 -2 3 -7 -2 -11 -11z"/>
<path d="M4920 3919 c-8 -17 -23 -40 -34 -50 -17 -16 -17 -19 -3 -19 16 0 64
86 54 96 -2 3 -10 -10 -17 -27z"/>
<path d="M5110 3940 c0 -5 7 -10 15 -10 8 0 15 -5 15 -11 0 -5 11 -35 25 -65
14 -30 25 -57 25 -60 0 -3 20 -47 44 -97 24 -51 55 -117 69 -147 14 -30 51
-108 81 -173 31 -65 56 -123 56 -128 0 -5 4 -9 9 -9 9 0 163 166 169 182 2 5
-37 92 -87 193 -50 101 -91 188 -91 193 0 6 -3 12 -7 14 -5 2 -23 32 -41 68
-18 36 -29 54 -26 40 4 -14 7 -40 8 -59 1 -21 7 -36 16 -39 13 -5 13 -3 1 12
-8 9 -11 19 -8 22 3 3 10 -3 16 -15 12 -21 0 -38 -19 -26 -18 11 -11 -11 11
-34 12 -12 19 -25 16 -27 -11 -12 -47 51 -47 82 0 33 -1 34 -40 34 -22 0 -40
-4 -40 -10 0 -5 -18 -10 -40 -10 -35 0 -40 -3 -41 -22 -1 -22 -1 -22 -8 -3
-16 47 -56 115 -68 115 -7 0 -13 -4 -13 -10z m326 -157 c-7 -7 -26 7 -26 19 0
6 6 6 15 -2 9 -7 13 -15 11 -17z m11 -29 c-3 -3 -12 -4 -19 -1 -8 3 -5 6 6 6
11 1 17 -2 13 -5z m-189 -44 c-2 -7 -10 1 -17 16 -12 27 -11 28 4 12 10 -9 16
-21 13 -28z"/>
<path d="M5040 3929 c0 -5 5 -7 10 -4 6 3 10 8 10 11 0 2 -4 4 -10 4 -5 0 -10
-5 -10 -11z"/>
<path d="M5182 3914 c-7 -8 -8 -14 -3 -14 10 0 25 19 20 25 -2 1 -10 -3 -17
-11z"/>
<path d="M4844 3883 c-9 -21 -20 -42 -22 -47 -3 -5 0 -6 7 -2 13 8 44 77 37
83 -2 3 -12 -13 -22 -34z"/>
<path d="M5080 3888 c-11 -18 -23 -43 -26 -56 -5 -18 -9 -20 -18 -10 -6 7 -10
12 -9 10 1 -2 -10 -24 -24 -49 -13 -25 -22 -47 -19 -50 3 -3 13 12 23 33 22
48 22 49 28 42 3 -3 -11 -36 -31 -74 -25 -49 -34 -60 -29 -36 4 20 3 32 -4 32
-10 0 -2 21 53 133 13 26 21 47 17 47 -3 0 -82 -153 -174 -340 -93 -187 -172
-342 -176 -345 -4 -2 -66 -9 -137 -15 -331 -29 -390 -36 -401 -43 -7 -5 -13
-19 -13 -32 0 -19 18 -36 83 -80 46 -31 98 -68 116 -83 l33 -27 -123 -247
c-110 -220 -122 -250 -113 -275 7 -22 17 -29 42 -31 36 -4 44 3 428 335 468
405 495 432 451 449 -16 6 -392 -139 -427 -165 -14 -10 -62 -69 -108 -132 -45
-63 -90 -123 -100 -134 -9 -11 -48 -62 -86 -113 -38 -51 -70 -91 -72 -89 -3 2
38 91 90 198 51 107 97 204 100 216 6 19 -4 30 -73 78 -45 31 -83 60 -86 65
-7 11 31 18 140 25 88 6 219 20 281 30 26 5 35 14 59 68 16 34 70 146 120 248
51 103 99 204 109 225 9 22 20 46 26 54 5 8 19 38 31 65 13 28 28 62 35 78 18
37 8 34 -16 -5z m-143 -230 c-3 -8 -6 -5 -6 6 -1 11 2 17 5 13 3 -3 4 -12 1
-19z"/>
<path d="M5191 3874 c0 -11 3 -14 6 -6 3 7 2 16 -1 19 -3 4 -6 -2 -5 -13z"/>
<path d="M4858 3794 c-19 -33 -23 -35 -30 -18 -6 14 -7 12 -3 -8 7 -34 -3 -58
-21 -51 -8 3 -14 -1 -14 -11 0 -9 -4 -16 -10 -16 -5 0 -10 4 -10 9 0 6 5 13
10 16 6 3 10 15 10 27 0 18 2 19 17 7 15 -13 15 -12 4 9 -10 18 -10 26 0 38 6
8 9 17 6 20 -3 3 -64 -115 -137 -261 -72 -147 -130 -269 -127 -271 3 -3 21 -2
42 2 40 7 28 -14 207 364 32 69 65 137 74 153 23 41 7 33 -18 -9z m-95 -129
c-3 -9 -8 -14 -10 -11 -3 3 -2 9 2 15 9 16 15 13 8 -4z m37 8 c0 -5 -10 -19
-21 -33 l-20 -25 16 33 c15 30 25 41 25 25z"/>
<path d="M5060 3568 c-109 -57 -100 -184 23 -315 l39 -42 40 47 c59 72 102
164 95 207 -8 47 -43 94 -83 111 -45 19 -63 18 -114 -8z m101 -68 c28 -16 27
-84 -3 -104 -29 -21 -51 -20 -79 2 -28 24 -31 79 -4 98 22 17 59 18 86 4z"/>
<path d="M5780 3553 c-39 -14 -60 -46 -60 -91 0 -42 -5 -50 -68 -116 -104
-108 -256 -269 -367 -390 -55 -59 -109 -113 -120 -119 -11 -6 -78 -14 -150
-17 -158 -8 -182 -18 -278 -121 -72 -76 -84 -111 -39 -117 18 -3 40 14 96 71
86 89 108 97 252 97 125 0 176 22 250 107 27 32 90 101 140 153 50 52 119 127
154 165 35 39 79 86 97 105 17 19 45 50 61 68 21 23 37 32 60 32 46 0 92 43
92 87 0 61 -63 107 -120 86z"/>
<path d="M5710 3202 c-8 -9 -50 -54 -93 -99 l-79 -82 67 -148 c148 -324 172
-368 226 -417 62 -56 123 -76 231 -76 43 0 78 2 78 5 0 8 -408 835 -412 835
-2 -1 -10 -8 -18 -18z"/>
<path d="M3490 1865 c0 -24 2 -25 70 -25 l70 0 0 -170 0 -170 35 0 36 0 -3
170 -3 170 73 0 c70 0 72 1 72 25 l0 25 -175 0 -175 0 0 -25z"/>
<path d="M3910 1695 l0 -195 35 0 35 0 0 60 0 60 59 0 59 0 37 -56 c40 -60 50
-67 89 -62 l26 3 -42 59 -41 58 39 33 c38 32 39 35 39 96 0 111 -45 139 -221
139 l-114 0 0 -195z m238 125 c20 -12 32 -28 33 -42 4 -83 -18 -102 -121 -106
l-80 -4 0 86 0 86 68 0 c49 0 76 -5 100 -20z"/>
<path d="M4443 1803 c-37 -78 -91 -194 -129 -275 -13 -28 -13 -28 22 -28 32 0
37 4 55 45 l20 45 112 0 112 -1 21 -42 c19 -36 26 -42 58 -45 l37 -3 -49 98
c-27 54 -70 142 -97 196 -48 96 -49 97 -85 97 -35 0 -37 -1 -77 -87z m96 -5
c5 -13 23 -52 40 -87 17 -36 31 -66 31 -68 0 -2 -39 -3 -86 -3 -84 0 -85 0
-79 23 4 12 13 31 19 42 7 11 21 41 31 68 20 52 31 58 44 25z"/>
<path d="M4753 1858 c15 -34 46 -102 123 -265 42 -91 44 -93 78 -93 39 0 27
-19 121 185 20 44 46 103 57 130 12 28 26 56 31 63 7 9 1 12 -27 12 -35 0 -37
-2 -72 -77 -20 -43 -52 -113 -71 -156 -20 -42 -38 -75 -41 -72 -2 2 -35 71
-72 152 l-68 148 -36 3 -37 3 14 -33z"/>
<path d="M5231 1695 l-2 -195 146 0 145 0 0 25 0 25 -110 0 -110 0 0 170 0
170 -34 0 -33 0 -2 -195z"/>
<path d="M5600 1695 l0 -195 35 0 35 0 0 60 0 60 60 0 c59 0 60 0 87 -42 45
-70 55 -78 91 -78 31 0 32 1 21 23 -7 12 -26 39 -42 59 l-30 38 38 33 c35 30
39 39 43 93 3 50 0 63 -18 87 -36 45 -79 57 -206 57 l-114 0 0 -195z m253 117
c32 -32 29 -88 -7 -118 -23 -21 -38 -24 -102 -24 l-74 0 0 86 0 87 81 -5 c65
-4 84 -9 102 -26z"/>
<path d="M6336 1866 c-9 -14 -16 -28 -16 -32 0 -7 -66 -146 -126 -266 l-34
-68 37 0 c36 0 39 3 57 45 l18 46 116 -3 115 -3 16 -42 c14 -40 18 -43 53 -43
l37 0 -30 63 c-17 34 -44 94 -62 132 -17 39 -46 97 -63 130 -29 54 -35 60 -66
63 -28 2 -38 -2 -52 -22z m96 -132 c21 -48 38 -88 38 -90 0 -2 -38 -4 -85 -4
-81 0 -95 5 -77 26 5 5 16 27 25 49 34 87 48 117 54 111 4 -3 23 -45 45 -92z"/>
<path d="M6690 1695 l0 -195 30 0 30 0 0 195 0 195 -30 0 -30 0 0 -195z"/>
</g>
</svg>
